<svg width="364" height="364" viewBox="0 0 364 364" fill="none" xmlns="http://www.w3.org/2000/svg">
<g clip-path="url(#clip0_2733_29679)">
<path d="M47.19 10.2963C46.89 10.5763 43.23 13.8063 40.73 16.9363C33.85 25.5463 30.25 36.3262 30.22 47.3462C30.18 64.3162 30.05 115.106 30.02 129.166C30.02 129.916 31.03 130.136 31.34 129.456C40.93 108.066 88.1 38.2163 125.43 24.6663C126.59 24.2463 126.84 22.7363 125.87 21.9763C115.9 14.1263 74.63 -15.3937 47.18 10.2963H47.19Z" fill="white"/>
<path d="M33.22 180.236C31.11 183.686 30 187.646 30 191.686C30 209.666 30 261.946 30 278.356C30 279.876 31.97 280.476 32.82 279.216C50.69 252.706 147.13 107.666 162.56 84.5863C162.89 84.0963 163.65 84.4463 163.48 85.0163C156.5 109.246 108.36 268.986 35.61 333.386C33.81 334.976 33.42 337.626 34.62 339.706C40.96 350.646 66.17 376.806 107.77 357.016C125.68 348.496 140 333.896 148.68 316.056C169.67 272.876 225.53 165.346 281.88 119.666C282.29 119.336 282.25 118.706 281.8 118.426L234.66 89.2363C234.24 88.9763 233.7 89.1663 233.53 89.6263C219.62 128.146 199.47 163.036 175.16 195.506C174.39 196.536 172.76 195.626 173.25 194.426C188.67 156.496 201.79 117.406 212.79 77.2263C213 76.4463 212.68 75.6263 211.99 75.1963L160.84 43.5263C156.13 40.6063 153.67 40.1563 151.3 40.6563C122.31 46.6963 69.42 120.906 33.22 180.236Z" fill="white"/>
<path d="M299.78 132.896C279.99 144.436 226.46 220.036 213.68 285.416C213.39 286.896 215 288.016 216.29 287.216L294.12 238.736C298.59 235.956 302.93 232.966 307.05 229.706C316.5 222.236 322.84 215.196 328.14 205.136C329.68 202.206 330.84 198.346 331.71 194.306C335.66 175.936 331.04 156.546 318.27 142.766C314.74 138.956 310.51 135.456 305.44 132.756C303.66 131.806 301.52 131.876 299.78 132.896Z" fill="white"/>
</g>
<defs>
<clipPath id="clip0_2733_29679">
<rect width="364" height="364" fill="white"/>
</clipPath>
</defs>
</svg>
